<?xml version="1.0" encoding="UTF-8" standalone="no"?>
<!-- Created with Inkscape (http://www.inkscape.org/) -->

<svg
   width="10mm"
   height="10mm"
   viewBox="0 0 10 10"
   version="1.1"
   id="svg5"
   sodipodi:docname="o.svg"
   inkscape:version="1.2.2 (732a01da63, 2022-12-09)"
   xmlns:inkscape="http://www.inkscape.org/namespaces/inkscape"
   xmlns:sodipodi="http://sodipodi.sourceforge.net/DTD/sodipodi-0.dtd"
   xmlns="http://www.w3.org/2000/svg"
   xmlns:svg="http://www.w3.org/2000/svg">
  <sodipodi:namedview
     id="namedview177"
     pagecolor="#ffffff"
     bordercolor="#000000"
     borderopacity="0.25"
     inkscape:showpageshadow="2"
     inkscape:pageopacity="0.0"
     inkscape:pagecheckerboard="0"
     inkscape:deskcolor="#d1d1d1"
     inkscape:document-units="mm"
     showgrid="false"
     inkscape:zoom="6.2441667"
     inkscape:cx="18.897638"
     inkscape:cy="18.897638"
     inkscape:window-width="1680"
     inkscape:window-height="987"
     inkscape:window-x="-8"
     inkscape:window-y="-8"
     inkscape:window-maximized="1"
     inkscape:current-layer="svg5" />
  <defs
     id="defs2" />
  <g
     id="layer1"
     transform="translate(-0.02708333,-0.15937501)">
    <path
       id="path337"
       style="fill:#000000;stroke-width:0.291953"
       d="M 5.0270833,0.92604163 A 4.2333333,4.2333333 0 0 0 0.79374996,5.159375 4.2333333,4.2333333 0 0 0 5.0270833,9.3927084 4.2333333,4.2333333 0 0 0 9.2604167,5.159375 4.2333333,4.2333333 0 0 0 5.0270833,0.92604163 Z m 0,0.51313137 A 3.7202017,3.7202017 0 0 1 8.7472854,5.159375 3.7202017,3.7202017 0 0 1 5.0270833,8.879577 3.7202017,3.7202017 0 0 1 1.3068813,5.159375 3.7202017,3.7202017 0 0 1 5.0270833,1.439173 Z" />
  </g>
</svg>
